<?xml version="1.0" standalone="no"?>
<!DOCTYPE svg PUBLIC "-//W3C//DTD SVG 20010904//EN"
 "http://www.w3.org/TR/2001/REC-SVG-20010904/DTD/svg10.dtd">
<svg version="1.0" xmlns="http://www.w3.org/2000/svg"
 width="740.000000pt" height="740.000000pt" viewBox="0 0 740.000000 740.000000"
 preserveAspectRatio="xMidYMid meet">

<g transform="translate(0.000000,740.000000) scale(0.100000,-0.100000)"
fill="#fff" stroke="none">
<path d="M4769 5477 c-64 -34 -104 -103 -104 -176 1 -36 8 -70 20 -94 13 -24
218 -212 615 -563 705 -624 673 -595 668 -599 -1 -2 -55 3 -118 10 -245 28
-482 38 -820 32 -356 -6 -445 -12 -770 -53 -1174 -146 -2306 -600 -3250 -1303
-239 -178 -568 -465 -607 -529 -83 -136 10 -301 170 -302 68 0 105 19 189 97
1027 952 2374 1539 3828 1669 336 30 1057 22 1239 -15 33 -6 30 -9 -100 -73
-498 -246 -886 -664 -1083 -1165 -20 -51 -36 -105 -36 -120 0 -76 48 -156 114
-190 19 -10 55 -17 93 -17 52 0 68 5 103 29 53 37 70 63 104 155 35 97 101
220 184 345 83 124 307 352 437 443 315 222 663 341 995 342 163 1 203 7 249
39 71 48 140 156 141 221 1 70 -49 153 -110 185 -15 8 -57 22 -94 31 l-66 17
-493 435 c-270 240 -670 594 -889 788 -218 193 -412 358 -431 367 -51 24 -125
22 -178 -6z"/>
</g>
</svg>
